<?xml version="1.0" encoding="UTF-8"?>
<svg id="Layer_1" data-name="Layer 1" xmlns="http://www.w3.org/2000/svg" viewBox="0 0 120 120">
  <defs>
    <style>
      .cls-1 {
        fill: #fff;
      }

      .cls-2 {
        fill: #ed5d1e;
      }
    </style>
  </defs>
  <path d="M89.41,64.8l1.63-7.22.15-6.17c3.16-2.55,3.24-6.85,1.61-10.32-.27-.56-1.04-2.08-1.69-2.08-.89,0-.24,1.15-.19,1.61.4,3.3-2.28,2.99-3.15,5.49-.56,1.6-.19,3.34.59,4.79-.6,1.93-1.65,3.88-2.19,5.79-.77,2.68-.88,5.74-1.56,8.47-1.63-.8-3.52.38-3.82,2.1-.61,3.57,2.06,6.69.25,10.2-.16.31-1.26,1.92-1.47,2.05-.16.12-.18.06-.29-.06-1.74-3.05-3.57-6.31-6.4-8.48-1.84-1.4-4.19-2.07-4.65-4.73.24-.43.55-.82.81-1.24,3.81-6.16,10.12-5.99,14.52-11.15,1.48-1.73.05-1.49-1.13-1.92-.13-.05-.33-.05-.16-.25.03-.03.59-.33.75-.47.54-.48,2.13-2.25,1.92-2.96-.62-.53-1.41-.77-2.13-1.28-2.95-2.1-3.8-6.07-6.27-8.61,1.38-4.71,2.3-9.69,1.98-14.63-.45-7.14-4.84-4.95-8.56-1.64-2.6,2.31-4.96,5.18-6.76,8.15-3.43-.71-6.99-.33-10.38.44-2.04-2.34-4.16-4.51-6.73-6.28-1.93-1.34-7.23-4.63-8.92-1.7-1.12,1.94-.74,6.06-.48,8.28.14,1.14.6,2.63.65,3.67.03.44-.19,1.05-.2,1.5-.07,3.56.51,6.63,1.71,9.97-.73,1.45-1.77,3.37-3.19,4.25-.42.26-1.52.55-1.63.95-.26.95,2.73,3.5,3.7,3.76-.56.71-2.38.15-1.94,1.53.19.58,2.57,2.18,3.2,2.55,2.75,1.6,5.88,2.43,8.93,3.31.14,2.07-.69,4.01-1.52,5.85-.81-.73-1.92-3.45-2.99-3.63-1.72-.27-2.62.9-2.17,2.52l2.67,4.57-1.14,1.52-.7.65c-2.16-8.11-7.61-16.35-15.59-19.63-2.58-1.06-6.05-1.9-8.84-1.59-.75.09-1.09.38-.79,1.15,3.36,3.72,5.15,8.91,5.42,13.91.28,5.18-1.08,10.23-.18,15.42,1.06,6.18,4.96,10.79,10.69,13.21,1.25.52,1.77.66,2.97,1.36,3.34,1.95,7.43.11,10.19-2.04.01.4.03,1.23.22,1.56.24.4,3.56,1.81,4.2,2.05,6.41,2.32,13.53,2.24,19.83-.39,1.32-.55,2.59-1.2,3.76-2.01l.35-3.2c7.07,6.96,11.57-1.54,13.5-7.76.75-2.41,1.16-4.89,1.83-7.32,1.78-2.25,4.18-4.17,4.56-7.28.36-3.04-1.75-6.03-4.78-6.59ZM91.12,44.07c.45-.5.57-1.16.99-1.65.42,1.49.69,3.03.41,4.57l-.76.35c-.02-.4-.17-.84-.56-1.03-.41-.14-.55.3-.85.45-.02-.36.07-.81-.08-1.15-.13-.31-.53-.11-.5-.43.07-.18,1.12-.87,1.35-1.11ZM88.74,46.96c.09-.3.19-.5.56-.44-.09,1.16.37,1.82,1.52,1.18.08.71.68.75,1.29.7-.35.82-.91,1.53-1.6,2.09l-1.19-.24c-.54-1.03-.91-2.12-.58-3.29ZM89.41,51.44l.59.13-.24,5.27-1.99-.41-.07-.3,1.71-4.69ZM87.31,57.66l2.22.47-1.42,6.54c-.72.12-1.46.21-2.09.6l1.29-7.61ZM84.73,72.42l1.39.96-3.5,13.34,2.11-14.3ZM84.26,66.45c-.13.5-.5.87-.68,1.37-.37,1.04-.35,1.99.08,3.01l-.57,3c-.11-1.5-.79-2.93-.93-4.41-.14-1.58,0-3.52,2.1-2.97ZM82.5,77.81l-.59,3.87c-.3.29-.24-.71-.26-.85-.09-.41-.21-.79-.33-1.2l1.18-1.82ZM69.83,71.44c.18.39.3.82.48,1.22-.15.12-3.26-1.83-3.02-.09.08.6.7,1.71.88,2.53.16.77.29,1.57.27,2.36-.12.13-1.83-1.42-2.38-1.27-.7.19-.38,1.78-.43,2.39-.11,1.3-.57,2.46-.94,3.69-.34-.34-.89-1.71-1.53-1-.13.14-.41,2.03-.61,2.55-.11.3-1.05,2.19-1.2,2.19-.5-.59-1.05-1.14-1.52-1.76-.79-1.06-.97-1.61-1.47-2.75-.34-.78-.95-.92-1.23-1.35-.34-.53-.33-2.08-.65-2.39-.81-.79-1.42.97-1.4,1.58-1.44-1.7-2.16-4.03-1.98-6.26.03-.44.53-1.26-.22-1.46-.35-.1-1.38.74-1.82.94-.24.11-1.48.58-1.61.45.11-1.14.25-2.64.94-3.58.32-.43,1.42-1.05,1.5-1.31.17-.58-.28-1.02-.19-1.47.09-.52,1.1-1.6.92-2.43,4.62,1.85,9.26,5.37,14.41,2.93.42,1.8,2.02,2.66,2.8,4.29ZM57.71,91.87l-2.03-3.47,1.33-1.21,2.22,3.4.07.35c-.71-.05-1.14.48-1.59.93ZM60.12,91.99l.56,2.06-.51.36-1.69-1.31c.3-.67.97-.93,1.64-1.11ZM52.38,77.23l-2.11-3.17,1.64-.58c-.09,1.28.13,2.52.47,3.75ZM65.8,63.05l-.04-.93s.34-.06.49-.15c.56-.31,1.27-.92,1.55-1.49.18-.37.18-.8.4-1.13.11-.16.88-.82,1.06-.7,1.32,2.5-.41,5.96-3.46,4.4ZM64.55,62.97c-.06.22-1.19.67-1.48.75-2.47.62-5.53-.65-5.01-3.61.06-.36.52-1.51.85-1.61.53-.17,2.19.64,2.5,1.09.16.23.16.53.3.75.73,1.18,1.5,1.68,2.85,2.01-.13.2.04.47-.01.62ZM57.83,57.54c-4.05-5.26-10.74-8.28-17.4-7.62,3.68-3.15,5.96-8.35,11.64-7.83,7.43.67,9.29,9.98,5.76,15.45ZM63.72,58.8c-.16-.08-.24-.12-.2-.32.9-.4,2.09-.62,2.92.06.01.45-2.29.51-2.72.26ZM83.09,48.99c.12.08-1.15,1.35-1.29,1.46-.36.3-1.77,1.04-1.86,1.31-.31.99,1.51,1.22,2.21,1.44-2.95,3.42-7.53,4.62-11.13,7.15.25-.89-.67-2.04-.72-2.75-.02-.45.23-1.53.37-1.99,1.46-4.76,7.81-7.22,12.42-6.62ZM77.4,42.78c1.59,1.34,2.31,3.62,4.05,4.91-4.78-.09-10.22,2.6-11.89,7.28-.1.26-.11.52-.18.76-.05.17.06.2-.24.17-2.63-3.86-3.68-11.34.92-14.14,2.54-1.54,5.19-.8,7.34,1.02ZM41.42,44.06c.2-.38,1.18-1.86,1.21-2.07.07-.5-.38-.53-.73-.27-.96.69-1.52,2.07-2.29,2.93-.08-1.04-.55-2.01-.79-3.02-.33-1.44-.48-2.9-.62-4.36l1.01,1.86c.29.38,1.62,2.48,2.16,2.07.46-.34-.65-1.63-.88-2.06-1.93-3.55-2.95-9.64-2.64-13.65.16-2.09.55-2.96,2.75-2.4,3.44.9,8.48,5.18,10.66,7.98.27.34,1.49,2.27,1.67,2.32.65.17.56-1.04.39-1.4,3.7-.77,7.49-1.07,11.18-.11.79.21,1.54.61,2.34.71.71-.88-2.08-1.69-2.15-1.96.59-1.14,1.42-2.26,2.23-3.26,1.68-2.1,5.33-5.93,7.85-6.8,1.1-.39,1.54-.2,1.9.9,1.07,3.23.21,9.63-.56,12.98-.1.48-.49,2.3-.7,2.58-.09.12-.17.19-.29.06l-1.25-.74-.4.39c.24.37,3.19,3.44,2.94,3.69-2.76-1.37-5.83-1.15-8.15.93-4.43,3.99-3.01,11.85.3,16.13l-.79.62h-.14c-1.25-1.7-4.68-1.46-5.76.37-.67-.52-1.47-1-2.34-1.06,3.07-5.93,1.28-14.68-5.86-16.46-3.97-.99-7.12.63-9.78,3.45-1.76,1.86-3.14,4.32-5.57,5.39,1.35-1.74,2.11-3.8,3.1-5.74ZM39.65,57.91c-.23-.13-1.63-1.04-1.68-1.13-.1-.2.14-.19.23-.23.61-.27,2.37-.71,2.09-1.62-.07-.25-2.31-1.23-2.78-1.56-.5-.35-.93-.79-1.38-1.19-.08-.07-.23.01-.15-.27,4.6-1.05,8.93-1.21,13.35.65,2.35.99,6.31,3.66,7.68,5.81.34.53-.27,1.67-.28,2.4-.04,3.49,3.89,4.79,6.77,4.07.47-.11,1.44-.69,1.61-.71.41-.05,1.76.79,2.39.56-2.13,2.87-5.95,1.93-8.79.76-2.44-1.02-4.71-2.25-7.24-3.19-3.85-1.44-8.28-2.29-11.82-4.35ZM49.34,62.93c.36.22,1.99.59,2.09.9.3.93-.76,1.92-.9,2.58-.08.41.15,1.17.07,1.3-.02.04-.64.39-.79.55-.74.75-1.3,2.07-1.29,3.11-.28.06-.2-.06-.27-.15-.36-.46-.62-1.02-.97-1.48,1-2.15,2.09-4.37,2.06-6.81ZM42.51,66.76c-.27-.53.3-1.04.74-.61l9.02,13.42-1.82.69-7.94-13.5ZM22.15,60.17c-.76-2.15-1.84-4.17-3.17-6.03,8.37.07,15.23,6.06,18.99,13.12-.13.1-.97-.21-1.17-.29-.55-.21-1.94-1.17-2.35-1.06-.93.25-.06,2.17,0,2.94.05.63-.03,1.3,0,1.93-.07.08-1.14-.67-1.28-.77-.96-.71-1.77-1.69-2.77-2.27-1.19-.08-.53,1.76-.53,2.41,0,.32-.35,2.74-.63,2.74-.69-.68-2.37-4.22-2.99-4.51-1.07-.49-.96,1.24-1.11,1.82-.28,1.12-.74,2.23-1.58,3.04l.23-2.86c-.07-3.49-.48-6.91-1.64-10.21ZM33.63,95.16c-4.51-1.54-8.23-5.42-9.64-9.99-.98-3.21-.91-6.6-.64-9.91,1.55-.91,2.33-2.57,3.08-4.12l2.34,3.86c.82.76,1.34-.4,1.64-1.06.49-1.11.78-2.41.76-3.63l3.69,2.57c.62.02.79-1.23.86-1.71.19-1.14.1-1.8.02-2.91-.03-.39.71.13.97.21.7.22,1.44.31,2.14.55.82,2.08,1.72,4.15,2.14,6.37-2.63,3.52-5.19,7.21-6.62,11.42-.91,2.65-1.51,5.59-.74,8.35ZM39.67,97.15c-9.28.83-3.21-12.43-.81-16.28,1.68-2.7,3.75-5.31,5.9-7.63l4.44,7.68c-1.17.59-2.05,2-3.04,2.69-.94.66-2.9,1.15-4.05,1.68-1.57.72-3.27,1.65-4.22,3.13.08.32.23.48.58.39.3-.08,1.67-1.05,2.12-1.29.7-.37,1.43-.68,2.15-1.02l1.09.45c-.51.56-1.32,2.37-1,3.05.26.55,2.52.63,3.11.59l.06,1.87c.18.38.69.15.99.29-1.79,1.95-4.59,4.15-7.32,4.4ZM45.77,89.42c-.61.01-1.22-.02-1.82-.01-.14-.13.54-1.49.68-1.72.25-.44.89-.67.5-1.27-.19-.28-.58-.23-.72-.52.52-.14,1.04-.31,1.52-.53,2.26-1.03,3.19-3.22,5.72-4.13,2.84-1.03,7-.36,5.21,3.57-.7,1.52-2.37,2.73-3.85,3.42-1.28.59-2.75.74-3.73,1.77-.23.24-1.03,1.43-1.14,1.49-.19.11-.89.12-1.15.15v-2.05c-.14-.5-.9-.18-1.22-.17ZM86.37,85.84c-.9,2.98-3.51,9.38-7.33,9.08-1.49-.12-4.2-2.12-4.68-3.52-.24-.7-.11-3.7-.18-4.74-.19-2.57-.55-5.23-1.43-7.66-.48-.12-.69,0-.68.51.05,2.1.44,4.23.59,6.33.22,3.38.38,6.8-.03,10.17-.1.28-2.35,1.36-2.79,1.54-5.69,2.46-12.12,2.67-18.02.8-.68-.21-4.06-1.53-4.37-1.95-.19-.27-.17-1.71.01-2.01,1.06-.88,2.16-2.95,3.22-3.69.92-.64,2.77-.86,3.76-1.61l2.69,4.55,4.82,3.85.6-.02c.13-.18.15-.37.12-.58-.23-1.76-1.09-3.77-1.36-5.57l-3.4-5.27.45-1.56,2.63,3.05c.82.53,1.44-.77,1.8-1.37.36-.6.6-1.26.96-1.85l.12-.06c.5.89,1.07.07,1.42-.51.99-1.59,1.53-3.73,1.62-5.59.21-.24,1.56,1.39,1.67,1.44,1.03.49,1.1-1.05,1.15-1.73.08-1.46-.26-2.87-.59-4.28.55.04,1.73,1.09,2.12,1,.97-.21.17-2.21.11-2.87,3.32,2.08,5.24,5.91,7.09,9.25-1.03,1.82-2.34,4.01-1.95,6.17l.61-.12c.72-2.24,1.81-4.41,3.39-6.16v1.93c.34.39.73.32,1.17.18l-.45,3.77c.12,1.06,1.07,1.69,2.06,1.17,1-.52,1.02-2.56,1.44-3.54.65.36,1.14-.37,1.69-.58.58.54.14,1.41-.05,2.05ZM90.65,75.35c-.61.71-1.76,1.52-2.16,2.3-.67,1.32-.84,3.5-1.19,4.97-.23.04-.3-.21-.53-.24-.56-.08-1.28.76-1.34.71l-.13-.77,2.12-8.38c.49.22,2.2.42,2.55.09.4-.86-1.03-.78-1.61-.96-.81-.26-1.59-.61-2.23-1.17-4.21-3.68,2.12-8.26,5.57-4.17,2.09,2.48.81,5.46-1.05,7.62Z"/>
  <path class="cls-2" d="M81.45,47.69c-4.78-.09-10.22,2.6-11.89,7.28-.1.26-.11.52-.18.76-.05.17.06.2-.24.17-2.63-3.86-3.68-11.34.92-14.14,2.54-1.54,5.19-.8,7.34,1.02,1.59,1.34,2.31,3.62,4.05,4.91Z"/>
  <path class="cls-2" d="M57.83,57.54c-4.05-5.26-10.74-8.28-17.4-7.62,3.68-3.15,5.96-8.35,11.64-7.83,7.43.67,9.29,9.98,5.76,15.45Z"/>
  <path class="cls-2" d="M65.8,63.05l-.04-.93s.34-.06.49-.15c.56-.31,1.27-.92,1.55-1.49.18-.37.18-.8.4-1.13.11-.16.88-.82,1.06-.7,1.32,2.5-.41,5.96-3.46,4.4Z"/>
  <path class="cls-2" d="M64.55,62.97c-.06.22-1.19.67-1.48.75-2.47.62-5.53-.65-5.01-3.61.06-.36.52-1.51.85-1.61.53-.17,2.19.64,2.5,1.09.16.23.16.53.3.75.73,1.18,1.5,1.68,2.85,2.01-.13.2.04.47-.01.62Z"/>
  <path class="cls-1" d="M73.47,36.74c.24.37,3.19,3.44,2.94,3.69-2.76-1.37-5.83-1.15-8.15.93-4.43,3.99-3.01,11.85.3,16.13l-.79.62h-.14c-1.25-1.7-4.68-1.46-5.76.37-.67-.52-1.47-1-2.34-1.06,3.07-5.93,1.28-14.68-5.86-16.46-3.97-.99-7.12.63-9.78,3.45-1.76,1.86-3.14,4.32-5.57,5.39,1.35-1.74,2.11-3.8,3.1-5.74.2-.38,1.18-1.86,1.21-2.07.07-.5-.38-.53-.73-.27-.96.69-1.52,2.07-2.29,2.93-.08-1.04-.55-2.01-.79-3.02-.33-1.44-.48-2.9-.62-4.36l1.01,1.86c.29.38,1.62,2.48,2.16,2.07.46-.34-.65-1.63-.88-2.06-1.93-3.55-2.95-9.64-2.64-13.65.16-2.09.55-2.96,2.75-2.4,3.44.9,8.48,5.18,10.66,7.98.27.34,1.49,2.27,1.67,2.32.65.17.56-1.04.39-1.4,3.7-.77,7.49-1.07,11.18-.11.79.21,1.54.61,2.34.71.71-.88-2.08-1.69-2.15-1.96.59-1.14,1.42-2.26,2.23-3.26,1.68-2.1,5.33-5.93,7.85-6.8,1.1-.39,1.54-.2,1.9.9,1.07,3.23.21,9.63-.56,12.98-.1.48-.49,2.3-.7,2.58-.09.12-.17.19-.29.06l-1.25-.74-.4.39Z"/>
  <path class="cls-2" d="M50.6,67.71s-.64.39-.79.55c-.74.75-1.3,2.07-1.29,3.11-.28.06-.2-.06-.27-.15-.36-.46-.62-1.02-.97-1.48,1-2.15,2.09-4.37,2.06-6.81.36.22,1.99.59,2.09.9.3.93-.76,1.92-.9,2.58-.08.41.15,1.17.07,1.3Z"/>
  <path class="cls-2" d="M52.38,77.23l-2.11-3.17,1.64-.58c-.09,1.28.13,2.52.47,3.75Z"/>
  <path class="cls-2" d="M86.37,85.84c-.9,2.98-3.51,9.38-7.33,9.08-1.49-.12-4.2-2.12-4.68-3.52-.24-.7-.11-3.7-.18-4.74-.19-2.57-.55-5.23-1.43-7.66-.48-.12-.69,0-.68.51.05,2.1.44,4.23.59,6.33.22,3.38.38,6.8-.03,10.17-.1.28-2.35,1.36-2.79,1.54-5.69,2.46-12.12,2.67-18.02.8-.68-.21-4.06-1.53-4.37-1.95-.19-.27-.17-1.71.01-2.01,1.06-.88,2.16-2.95,3.22-3.69.92-.64,2.77-.86,3.76-1.61l2.69,4.55,4.82,3.85.6-.02c.13-.18.15-.37.12-.58-.23-1.76-1.09-3.77-1.36-5.57l-3.4-5.27.45-1.56,2.63,3.05c.82.53,1.44-.77,1.8-1.37.36-.6.6-1.26.96-1.85l.12-.06c.5.89,1.07.07,1.42-.51.99-1.59,1.53-3.73,1.62-5.59.21-.24,1.56,1.39,1.67,1.44,1.03.49,1.1-1.05,1.15-1.73.08-1.46-.26-2.87-.59-4.28.55.04,1.73,1.09,2.12,1,.97-.21.17-2.21.11-2.87,3.32,2.08,5.24,5.91,7.09,9.25-1.03,1.82-2.34,4.01-1.95,6.17l.61-.12c.72-2.24,1.81-4.41,3.39-6.16v1.93c.34.39.73.32,1.17.18l-.45,3.77c.12,1.06,1.07,1.69,2.06,1.17,1-.52,1.02-2.56,1.44-3.54.65.36,1.14-.37,1.69-.58.58.54.14,1.41-.05,2.05Z"/>
  <path class="cls-2" d="M37.89,88.42c.08.32.23.48.58.39.3-.08,1.67-1.05,2.12-1.29.7-.37,1.43-.68,2.15-1.02l1.09.45c-.51.56-1.32,2.37-1,3.05.26.55,2.52.63,3.11.59l.06,1.87c.18.38.69.15.99.29-1.79,1.95-4.59,4.15-7.32,4.4-9.28.83-3.21-12.43-.81-16.28,1.68-2.7,3.75-5.31,5.9-7.63l4.44,7.68c-1.17.59-2.05,2-3.04,2.69-.94.66-2.9,1.15-4.05,1.68-1.57.72-3.27,1.65-4.22,3.13Z"/>
  <path class="cls-2" d="M34.37,86.81c-.91,2.65-1.51,5.59-.74,8.35-4.51-1.54-8.23-5.42-9.64-9.99-.98-3.21-.91-6.6-.64-9.91,1.55-.91,2.33-2.57,3.08-4.12l2.34,3.86c.82.76,1.34-.4,1.64-1.06.49-1.11.78-2.41.76-3.63l3.69,2.57c.62.02.79-1.23.86-1.71.19-1.14.1-1.8.02-2.91-.03-.39.71.13.97.21.7.22,1.44.31,2.14.55.82,2.08,1.72,4.15,2.14,6.37-2.63,3.52-5.19,7.21-6.62,11.42Z"/>
  <path class="cls-1" d="M82.5,77.81l-.59,3.87c-.3.29-.24-.71-.26-.85-.09-.41-.21-.79-.33-1.2l1.18-1.82Z"/>
  <path class="cls-2" d="M60.68,94.05l-.51.36-1.69-1.31c.3-.67.97-.93,1.64-1.11l.56,2.06Z"/>
  <path class="cls-2" d="M92.52,46.99l-.76.35c-.02-.4-.17-.84-.56-1.03-.41-.14-.55.3-.85.45-.02-.36.07-.81-.08-1.15-.13-.31-.53-.11-.5-.43.07-.18,1.12-.87,1.35-1.11.45-.5.57-1.16.99-1.65.42,1.49.69,3.03.41,4.57Z"/>
  <path class="cls-1" d="M37.97,67.26c-.13.1-.97-.21-1.17-.29-.55-.21-1.94-1.17-2.35-1.06-.93.25-.06,2.17,0,2.94.05.63-.03,1.3,0,1.93-.07.08-1.14-.67-1.28-.77-.96-.71-1.77-1.69-2.77-2.27-1.19-.08-.53,1.76-.53,2.41,0,.32-.35,2.74-.63,2.74-.69-.68-2.37-4.22-2.99-4.51-1.07-.49-.96,1.24-1.11,1.82-.28,1.12-.74,2.23-1.58,3.04l.23-2.86c-.07-3.49-.48-6.91-1.64-10.21-.76-2.15-1.84-4.17-3.17-6.03,8.37.07,15.23,6.06,18.99,13.12Z"/>
  <path class="cls-1" d="M56.86,84.81c-.7,1.52-2.37,2.73-3.85,3.42-1.28.59-2.75.74-3.73,1.77-.23.24-1.03,1.43-1.14,1.49-.19.11-.89.12-1.15.15v-2.05c-.14-.5-.9-.18-1.22-.17-.61.01-1.22-.02-1.82-.01-.14-.13.54-1.49.68-1.72.25-.44.89-.67.5-1.27-.19-.28-.58-.23-.72-.52.52-.14,1.04-.31,1.52-.53,2.26-1.03,3.19-3.22,5.72-4.13,2.84-1.03,7-.36,5.21,3.57Z"/>
  <path class="cls-1" d="M83.66,70.83l-.57,3c-.11-1.5-.79-2.93-.93-4.41-.14-1.58,0-3.52,2.1-2.97-.13.5-.5.87-.68,1.37-.37,1.04-.35,1.99.08,3.01Z"/>
  <path class="cls-1" d="M90.65,75.35c-.61.71-1.76,1.52-2.16,2.3-.67,1.32-.84,3.5-1.19,4.97-.23.04-.3-.21-.53-.24-.56-.08-1.28.76-1.34.71l-.13-.77,2.12-8.38c.49.22,2.2.42,2.55.09.4-.86-1.03-.78-1.61-.96-.81-.26-1.59-.61-2.23-1.17-4.21-3.68,2.12-8.26,5.57-4.17,2.09,2.48.81,5.46-1.05,7.62Z"/>
  <path class="cls-1" d="M82.15,53.2c-2.95,3.42-7.53,4.62-11.13,7.15.25-.89-.67-2.04-.72-2.75-.02-.45.23-1.53.37-1.99,1.46-4.76,7.81-7.22,12.42-6.62.12.08-1.15,1.35-1.29,1.46-.36.3-1.77,1.04-1.86,1.31-.31.99,1.51,1.22,2.21,1.44Z"/>
  <path class="cls-1" d="M67.5,64.69c-2.13,2.87-5.95,1.93-8.79.76-2.44-1.02-4.71-2.25-7.24-3.19-3.85-1.44-8.28-2.29-11.82-4.35-.23-.13-1.63-1.04-1.68-1.13-.1-.2.14-.19.23-.23.61-.27,2.37-.71,2.09-1.62-.07-.25-2.31-1.23-2.78-1.56-.5-.35-.93-.79-1.38-1.19-.08-.07-.23.01-.15-.27,4.6-1.05,8.93-1.21,13.35.65,2.35.99,6.31,3.66,7.68,5.81.34.53-.27,1.67-.28,2.4-.04,3.49,3.89,4.79,6.77,4.07.47-.11,1.44-.69,1.61-.71.41-.05,1.76.79,2.39.56Z"/>
  <path d="M101.69,57.63c-.71-.27-1.4-.84-1.79-1.49-.41-.7-.52-2.85-1.53-2.24-.46.28-.41,1.14-.58,1.64-.31.92-1.01,1.6-1.89,1.98-.45.2-1.2.28-1.51.48-.33.22-.4.75-.14,1.03.22.23,1.1.34,1.46.48.84.34,1.5.91,1.89,1.73.24.5.39,1.82.72,1.98,1.08.52,1.08-1.15,1.35-1.81.34-.84,1-1.46,1.81-1.82.46-.21,1.62-.35,1.74-.73.34-1.1-.82-.96-1.53-1.23ZM100.36,58.72c-.65.27-1.31.97-1.57,1.63-.61-.65-1.09-1.35-1.88-1.82.76-.38,1.29-1.05,1.82-1.69.46.63.9,1.38,1.7,1.64l-.07.24Z"/>
  <path class="cls-2" d="M100.43,58.48l-.07.24c-.65.27-1.31.97-1.57,1.63-.61-.65-1.09-1.35-1.88-1.82.76-.38,1.29-1.05,1.82-1.69.46.63.9,1.38,1.7,1.64Z"/>
  <path d="M48.77,35.14c-.7-2.88-2.49-5.51-4.77-7.36-1.18-.96-2.61-1.92-4.16-2.11-.15,4.38,1.01,9.11,3.81,12.54l1.58-1.58c-.69-.36-3.28-1.81-3.14-2.67.09-.55,1.04-.85,1.03-.96-.86-.56-1.2-1.32-.12-1.87-.69-.62-1.86-1.25-1.17-2.28-.42-.12-1.71-1.34-1.23-1.76.51-.44,1.17.54,1.53.82.42.32,1.73.92,1.41,1.53-.16.31-.63.09-.53.46l1.86,1.26c.07.81-.85.48-1.27.91.31.54,1.86.57,1.47,1.35-.16.32-.61.2-.89.29-.17.05-.9.27-.81.47s.62.55.83.7c.47.32,2.46,1.16,2.55,1.44.06.2.04.41-.09.57l-2.7,2.57c-.65.3-1.67-1.23-2.02-1.73-2.02-2.91-3.45-8.11-3.14-11.63.13-1.44.64-1.62,1.99-1.29,3.01.72,6.58,4.36,7.91,7.09.31.63,1.07,2.47.86,3.09-.12.28-.52.21-.79.17Z"/>
  <path d="M73.01,31.52c-.36-.15-1.34-.03-1.53-.31-.47-.72.91-.92.94-1.56-2.76-.09.47-1.79.47-2.17l-.62-.44-.03-.22,1.82-2.27c1.53-.28.3,1.4-.23,1.88.92.67-.31,1.77-.82,2.34,1.26.41.85.98.23,1.81,2.45.37-.27,2.77-1.29,3.28-.17.24.96.96,1.17,1.05,1.72-3.08,2.33-7.1,2.12-10.61-.01-.22-.11-1.33-.3-1.34-3.4,2.18-5.38,6.15-6.05,10.06-1.32.24-.72-1.6-.54-2.35.64-2.71,3.18-7.04,5.67-8.39,1.82-.99,2.12-.02,2.26,1.68.26,3.18-.29,8.55-2.13,11.23-.19.28-.6.89-.91.97-.49.13-1.95-1.5-2.58-1.65-.83-1,2.19-2.04,2.34-2.99Z"/>
  <path d="M56.74,47.5c-.6-1.31-1.98-2.23-3.44-2.12-.71.06-1.59.47-2.14.91-.19.15-1.6,1.65-1.65,1.76-.43.93.85.4,1.11.52.38.17.87,1.39,1.83,1.81,1.55.66,2.45-.08,3.75-.1.33,0,.74.34.99.06.32-.38-.22-2.34-.45-2.84ZM52.32,49.1l-1.1-1.45c.11-.27,1.36-1.14,1.51-1.01-.55.79-.53,1.54-.41,2.46ZM54.77,48.04c-.61.2-.67-.69-.32-.8.61-.21.67.68.32.8ZM55.31,49.45c.37-.47.56-.91.47-1.52l.42.93.05.59h-.94Z"/>
  <path class="cls-1" d="M55.31,49.45c.37-.47.56-.91.47-1.52l.42.93.05.59h-.94Z"/>
  <path class="cls-1" d="M54.77,48.04c-.61.2-.67-.69-.32-.8.61-.21.67.68.32.8Z"/>
  <path class="cls-1" d="M52.32,49.1l-1.1-1.45c.11-.27,1.36-1.14,1.51-1.01-.55.79-.53,1.54-.41,2.46Z"/>
  <path d="M68.78,45.17c-.46.48-.97,1.58-1.05,2.23-.06.58,0,1.38,0,1.99,0,.02.19.22.24.24.33.2.58-.13.88-.17.85-.11,1.65.15,2.55-.03,1.47-.31,1.99-1.29,2.66-2.51.21-.13,1.02.51,1.18-.22-1.54-1.87-4.27-3.78-6.46-1.53ZM68.67,48.52c.04-.38-.14-.88.18-1.18.12.46.34.82.64,1.17h-.82ZM71.17,46.74c-.64.18-.64-.69-.32-.79.56-.18.9.62.32.79ZM72.42,47.7c.19-.9-.09-1.68-.7-2.35.41.03,1.4.51,1.51.91.05.22-.57,1.24-.81,1.44Z"/>
  <path class="cls-1" d="M72.42,47.7c.19-.9-.09-1.68-.7-2.35.41.03,1.4.51,1.51.91.05.22-.57,1.24-.81,1.44Z"/>
  <path class="cls-1" d="M71.17,46.74c-.64.18-.64-.69-.32-.79.56-.18.9.62.32.79Z"/>
  <path class="cls-1" d="M69.49,48.51h-.82c.04-.37-.14-.87.18-1.17.12.46.34.82.64,1.17Z"/>
</svg>